<mxfile host="app.diagrams.net" modified="2024-07-05T08:34:36.477Z" agent="Mozilla/5.0 (Windows NT 10.0; Win64; x64) AppleWebKit/537.36 (KHTML, like Gecko) Chrome/126.0.0.0 Safari/537.36" etag="1PIjn8lyXSuBT1kbhXvs" version="24.6.4" type="google">
  <diagram id="C5RBs43oDa-KdzZeNtuy" name="Page-1">
    <mxGraphModel grid="1" page="1" gridSize="10" guides="1" tooltips="1" connect="1" arrows="1" fold="1" pageScale="1" pageWidth="827" pageHeight="1169" math="0" shadow="0">
      <root>
        <mxCell id="WIyWlLk6GJQsqaUBKTNV-0" />
        <mxCell id="WIyWlLk6GJQsqaUBKTNV-1" parent="WIyWlLk6GJQsqaUBKTNV-0" />
        <mxCell id="qE2nww85USSS4xP8tJjK-0" value="Begin &#xa;Input a,b,c&#xa;If a&gt;b, a&gt;c&#xa;   Print a&#xa;Else if b&gt;c&#xa;   Print b&#xa;Else &#xa;   Print c&#xa; End if&#xa;end" style="text;html=1;whiteSpace=wrap;overflow=hidden;rounded=0;spacing=14;spacingRight=4;fillColor=#dae8fc;strokeColor=#6c8ebf;" vertex="1" parent="WIyWlLk6GJQsqaUBKTNV-1">
          <mxGeometry x="25" y="-1130" width="144" height="180" as="geometry" />
        </mxCell>
        <mxCell id="qE2nww85USSS4xP8tJjK-4" value="" style="edgeStyle=orthogonalEdgeStyle;rounded=0;orthogonalLoop=1;jettySize=auto;html=1;" edge="1" parent="WIyWlLk6GJQsqaUBKTNV-1" source="qE2nww85USSS4xP8tJjK-1" target="qE2nww85USSS4xP8tJjK-3">
          <mxGeometry relative="1" as="geometry" />
        </mxCell>
        <mxCell id="qE2nww85USSS4xP8tJjK-1" value="begin&amp;nbsp;" style="ellipse;whiteSpace=wrap;html=1;" vertex="1" parent="WIyWlLk6GJQsqaUBKTNV-1">
          <mxGeometry x="630" y="-1100" width="120" height="80" as="geometry" />
        </mxCell>
        <mxCell id="qE2nww85USSS4xP8tJjK-8" value="" style="edgeStyle=orthogonalEdgeStyle;rounded=0;orthogonalLoop=1;jettySize=auto;html=1;" edge="1" parent="WIyWlLk6GJQsqaUBKTNV-1" source="qE2nww85USSS4xP8tJjK-3" target="qE2nww85USSS4xP8tJjK-6">
          <mxGeometry relative="1" as="geometry" />
        </mxCell>
        <mxCell id="qE2nww85USSS4xP8tJjK-3" value="input a,b,c" style="shape=parallelogram;perimeter=parallelogramPerimeter;whiteSpace=wrap;html=1;fixedSize=1;" vertex="1" parent="WIyWlLk6GJQsqaUBKTNV-1">
          <mxGeometry x="630" y="-940" width="120" height="60" as="geometry" />
        </mxCell>
        <mxCell id="qE2nww85USSS4xP8tJjK-5" value="print a" style="shape=parallelogram;perimeter=parallelogramPerimeter;whiteSpace=wrap;html=1;fixedSize=1;" vertex="1" parent="WIyWlLk6GJQsqaUBKTNV-1">
          <mxGeometry x="414" y="-810" width="120" height="60" as="geometry" />
        </mxCell>
        <mxCell id="qE2nww85USSS4xP8tJjK-7" value="" style="edgeStyle=orthogonalEdgeStyle;rounded=0;orthogonalLoop=1;jettySize=auto;html=1;" edge="1" parent="WIyWlLk6GJQsqaUBKTNV-1" source="qE2nww85USSS4xP8tJjK-6" target="qE2nww85USSS4xP8tJjK-5">
          <mxGeometry relative="1" as="geometry" />
        </mxCell>
        <mxCell id="qE2nww85USSS4xP8tJjK-11" value="" style="edgeStyle=orthogonalEdgeStyle;rounded=0;orthogonalLoop=1;jettySize=auto;html=1;" edge="1" parent="WIyWlLk6GJQsqaUBKTNV-1" source="qE2nww85USSS4xP8tJjK-6" target="qE2nww85USSS4xP8tJjK-10">
          <mxGeometry relative="1" as="geometry" />
        </mxCell>
        <mxCell id="qE2nww85USSS4xP8tJjK-6" value="if&amp;nbsp; a..b, a&amp;gt;c" style="shape=parallelogram;perimeter=parallelogramPerimeter;whiteSpace=wrap;html=1;fixedSize=1;" vertex="1" parent="WIyWlLk6GJQsqaUBKTNV-1">
          <mxGeometry x="630" y="-810" width="120" height="60" as="geometry" />
        </mxCell>
        <mxCell id="qE2nww85USSS4xP8tJjK-9" value="yes" style="text;html=1;align=center;verticalAlign=middle;whiteSpace=wrap;rounded=0;" vertex="1" parent="WIyWlLk6GJQsqaUBKTNV-1">
          <mxGeometry x="560" y="-820" width="60" height="30" as="geometry" />
        </mxCell>
        <mxCell id="qE2nww85USSS4xP8tJjK-14" value="" style="edgeStyle=orthogonalEdgeStyle;rounded=0;orthogonalLoop=1;jettySize=auto;html=1;" edge="1" parent="WIyWlLk6GJQsqaUBKTNV-1" source="qE2nww85USSS4xP8tJjK-10" target="qE2nww85USSS4xP8tJjK-13">
          <mxGeometry relative="1" as="geometry" />
        </mxCell>
        <mxCell id="qE2nww85USSS4xP8tJjK-17" value="" style="edgeStyle=orthogonalEdgeStyle;rounded=0;orthogonalLoop=1;jettySize=auto;html=1;" edge="1" parent="WIyWlLk6GJQsqaUBKTNV-1" source="qE2nww85USSS4xP8tJjK-10">
          <mxGeometry relative="1" as="geometry">
            <mxPoint x="680" y="-570" as="targetPoint" />
          </mxGeometry>
        </mxCell>
        <mxCell id="qE2nww85USSS4xP8tJjK-10" value="else if b&amp;gt;c" style="shape=parallelogram;perimeter=parallelogramPerimeter;whiteSpace=wrap;html=1;fixedSize=1;" vertex="1" parent="WIyWlLk6GJQsqaUBKTNV-1">
          <mxGeometry x="630" y="-690" width="120" height="60" as="geometry" />
        </mxCell>
        <mxCell id="qE2nww85USSS4xP8tJjK-12" value="no" style="text;html=1;align=center;verticalAlign=middle;whiteSpace=wrap;rounded=0;" vertex="1" parent="WIyWlLk6GJQsqaUBKTNV-1">
          <mxGeometry x="700" y="-740" width="60" height="30" as="geometry" />
        </mxCell>
        <mxCell id="qE2nww85USSS4xP8tJjK-23" style="edgeStyle=orthogonalEdgeStyle;rounded=0;orthogonalLoop=1;jettySize=auto;html=1;entryX=1;entryY=0.75;entryDx=0;entryDy=0;" edge="1" parent="WIyWlLk6GJQsqaUBKTNV-1" source="qE2nww85USSS4xP8tJjK-13" target="qE2nww85USSS4xP8tJjK-21">
          <mxGeometry relative="1" as="geometry" />
        </mxCell>
        <mxCell id="qE2nww85USSS4xP8tJjK-13" value="print b" style="shape=parallelogram;perimeter=parallelogramPerimeter;whiteSpace=wrap;html=1;fixedSize=1;" vertex="1" parent="WIyWlLk6GJQsqaUBKTNV-1">
          <mxGeometry x="414" y="-680" width="120" height="60" as="geometry" />
        </mxCell>
        <mxCell id="qE2nww85USSS4xP8tJjK-15" value="yes" style="text;html=1;align=center;verticalAlign=middle;whiteSpace=wrap;rounded=0;" vertex="1" parent="WIyWlLk6GJQsqaUBKTNV-1">
          <mxGeometry x="560" y="-700" width="60" height="30" as="geometry" />
        </mxCell>
        <mxCell id="qE2nww85USSS4xP8tJjK-24" style="edgeStyle=orthogonalEdgeStyle;rounded=0;orthogonalLoop=1;jettySize=auto;html=1;" edge="1" parent="WIyWlLk6GJQsqaUBKTNV-1" source="qE2nww85USSS4xP8tJjK-18">
          <mxGeometry relative="1" as="geometry">
            <mxPoint x="290" y="-650" as="targetPoint" />
          </mxGeometry>
        </mxCell>
        <mxCell id="qE2nww85USSS4xP8tJjK-18" value="print c" style="shape=parallelogram;perimeter=parallelogramPerimeter;whiteSpace=wrap;html=1;fixedSize=1;" vertex="1" parent="WIyWlLk6GJQsqaUBKTNV-1">
          <mxGeometry x="620" y="-570" width="120" height="60" as="geometry" />
        </mxCell>
        <mxCell id="qE2nww85USSS4xP8tJjK-20" value="no" style="text;html=1;align=center;verticalAlign=middle;whiteSpace=wrap;rounded=0;" vertex="1" parent="WIyWlLk6GJQsqaUBKTNV-1">
          <mxGeometry x="700" y="-614" width="60" height="30" as="geometry" />
        </mxCell>
        <mxCell id="qE2nww85USSS4xP8tJjK-26" value="" style="edgeStyle=orthogonalEdgeStyle;rounded=0;orthogonalLoop=1;jettySize=auto;html=1;" edge="1" parent="WIyWlLk6GJQsqaUBKTNV-1" source="qE2nww85USSS4xP8tJjK-21" target="qE2nww85USSS4xP8tJjK-25">
          <mxGeometry relative="1" as="geometry" />
        </mxCell>
        <mxCell id="qE2nww85USSS4xP8tJjK-21" value="end if" style="shape=parallelogram;perimeter=parallelogramPerimeter;whiteSpace=wrap;html=1;fixedSize=1;" vertex="1" parent="WIyWlLk6GJQsqaUBKTNV-1">
          <mxGeometry x="220" y="-715" width="120" height="60" as="geometry" />
        </mxCell>
        <mxCell id="qE2nww85USSS4xP8tJjK-22" style="edgeStyle=orthogonalEdgeStyle;rounded=0;orthogonalLoop=1;jettySize=auto;html=1;entryX=0.563;entryY=-0.04;entryDx=0;entryDy=0;entryPerimeter=0;" edge="1" parent="WIyWlLk6GJQsqaUBKTNV-1" source="qE2nww85USSS4xP8tJjK-5" target="qE2nww85USSS4xP8tJjK-21">
          <mxGeometry relative="1" as="geometry" />
        </mxCell>
        <mxCell id="qE2nww85USSS4xP8tJjK-25" value="end" style="ellipse;whiteSpace=wrap;html=1;" vertex="1" parent="WIyWlLk6GJQsqaUBKTNV-1">
          <mxGeometry x="40" y="-725" width="80" height="80" as="geometry" />
        </mxCell>
      </root>
    </mxGraphModel>
  </diagram>
</mxfile>
